<?xml version="1.0" encoding="iso-8859-1"?>
<!-- Generator: Adobe Illustrator 19.0.0, SVG Export Plug-In . SVG Version: 6.00 Build 0)  -->
<svg version="1.1" id="Capa_1" xmlns="http://www.w3.org/2000/svg" xmlns:xlink="http://www.w3.org/1999/xlink" x="0px" y="0px"
	 viewBox="0 0 512 512" style="enable-background:new 0 0 512 512;" xml:space="preserve">
<g>
	<g>
		<g>
			<path d="M400,144h-64v32h64c44.183,0,80,35.817,80,80c0,44.183-35.817,80-80,80h-62.032c-12.617,0.018-23.624-8.561-26.688-20.8
				c-7.62-30.53-38.548-49.102-69.078-41.482c-20.43,5.099-36.382,21.052-41.482,41.482c-3.064,12.239-14.071,20.818-26.688,20.8
				H112c-44.183,0-80-35.817-80-80c0-44.183,35.817-80,80-80h64v-32h-64C50.144,144,0,194.144,0,256s50.144,112,112,112h62.032
				c27.315,0.029,51.131-18.566,57.728-45.072c3.324-13.387,16.871-21.545,30.259-18.221c8.98,2.23,15.992,9.241,18.221,18.221
				c6.597,26.506,30.414,45.101,57.728,45.072H400c61.856,0,112-50.144,112-112S461.856,144,400,144z"/>
			<rect x="96" y="240" width="64" height="32"/>
			<rect x="352" y="240" width="64" height="32"/>
			<rect x="208" y="144" width="32" height="32"/>
			<rect x="272" y="144" width="32" height="32"/>
		</g>
	</g>
</g>
<g>
</g>
<g>
</g>
<g>
</g>
<g>
</g>
<g>
</g>
<g>
</g>
<g>
</g>
<g>
</g>
<g>
</g>
<g>
</g>
<g>
</g>
<g>
</g>
<g>
</g>
<g>
</g>
<g>
</g>
</svg>
