<svg id="shark" xmlns="http://www.w3.org/2000/svg" viewBox="0 0 516.23835 210.08907"><style id="style4955">#shark { width: 70%; auto; } .tail &gt; * { opacity: 0; -webkit-animation-duration: 0.6s; animation-duration: 0.6s; -webkit-animation-direction: alternate; animation-direction: alternate; -webkit-animation-iteration-count: infinite; animation-iteration-count: infinite; -webkit-animation-timing-function: steps(1); animation-timing-function: steps(1); } @-webkit-keyframes tail-1 { 0% { opacity: 1; } 33.33333% { opacity: 0; } } @keyframes tail-1 { 0% { opacity: 1; } 33.33333% { opacity: 0; } } .tail &gt; :nth-child(1) { -webkit-animation-name: tail-1; animation-name: tail-1; } @-webkit-keyframes tail-2 { 33.33333% { opacity: 1; } 66.66667% { opacity: 0; } } @keyframes tail-2 { 33.33333% { opacity: 1; } 66.66667% { opacity: 0; } } .tail &gt; :nth-child(2) { -webkit-animation-name: tail-2; animation-name: tail-2; } @-webkit-keyframes tail-3 { 66.66667% { opacity: 1; } 100% { opacity: 0; } } @keyframes tail-3 { 66.66667% { opacity: 1; } 100% { opacity: 0; } } .tail &gt; :nth-child(3) { -webkit-animation-name: tail-3; animation-name: tail-3; } .eyes &gt; * { opacity: 0; -webkit-animation-duration: 0.8s; animation-duration: 0.8s; -webkit-animation-direction: alternate; animation-direction: alternate; -webkit-animation-iteration-count: infinite; animation-iteration-count: infinite; -webkit-animation-timing-function: steps(1); animation-timing-function: steps(1); } @-webkit-keyframes eyes-1 { 0% { opacity: 1; } 75% { opacity: 0; } } @keyframes eyes-1 { 0% { opacity: 1; } 75% { opacity: 0; } } .eyes &gt; :nth-child(1) { -webkit-animation-name: eyes-1; animation-name: eyes-1; } @-webkit-keyframes eyes-2 { 75% { opacity: 1; } 87.5% { opacity: 0; } } @keyframes eyes-2 { 75% { opacity: 1; } 87.5% { opacity: 0; } } .eyes &gt; :nth-child(2) { -webkit-animation-name: eyes-2; animation-name: eyes-2; } @-webkit-keyframes eyes-3 { 87.5% { opacity: 1; } 100% { opacity: 0; } } @keyframes eyes-3 { 87.5% { opacity: 1; } 100% { opacity: 0; } } .eyes &gt; :nth-child(3) { -webkit-animation-name: eyes-3; animation-name: eyes-3; }</style><path id="path4975" d="M240.8 5.4c-.7 0-1.4.6-1.5 1.2-2 0-3 3-1.2 4.2.8.5 2 .4 2.6.7l.7 1.2 1 2.4c1 3 2.5 5.6 3.7 8.4 1.3 3 1.3 6.7 3.2 9.5 1.8 2.7 3.6 5.7 4.4 9 .2 2.4.2 4.8 0 7.2 0 .7-.3 1.3-.6 2l-.3 2.2c-3.6 0-7.3 0-11 .5-4.6.3-9 1.8-13.5 2.6-3.7.7-7.3 1.8-10.8 3-5 1.6-10.2 2.7-15.3 3.5-2.4.8-4.2 2.8-6.5 4-3.5 1.5-7.2 2.3-10.7 3.6-3 1-5.8 2-8.7 2.8v3.8c5-1.4 9.5-3 14.2-4.6 2.4-.6 4.8-1.3 7-2.3 2-1 3.7-2.8 5.8-3.6 5-.8 9.7-1.8 14.4-3.2 3.2-1 6.3-2.3 9.6-3l10.5-2.2c4-.7 8-1.3 12-1.2l3.2.2c.5.2 1 .4 1 0l1.7-.4c1-.5 1.2-1.5 1-2.5 0-1.4.5-2.8 1-4 .7-2.3 1.4-4.6 1.2-7 0-3.8 0-7.7-1.5-11.2-2-3.8-4-8-6.8-11.3-1-1.7-2.7-3.2-3.4-5.2l-2-4h2.4l.6 1.4c.8 1 2 1.8 3 2.5 2 1.3 4.4 1.7 6.4 2.8 1.8 1 4 1.5 5.2 3 2 2.2 3.2 5 5.3 6.8 4 4.4 7.6 9 12.3 12.7l1 1.4c.8 2 0 4.3 1.6 5.6 1.3 1 3 0 4.5.2 4.6-.5 9-.4 13.6-.6 9.6-.5 19.2 0 28.8-.2 7-.4 13.8-2 20.8-2.5 8.3-1 16.7-1.3 25.2-1.5 9 0 17.7-.5 26.6-1 14.4-.8 28.8-1.8 43.3-1.5 6.2 0 12.4 0 18.6.5l12.5 1c2.3.4 4.7 1 7 1.3l6 1-.5.2c-.6 0-1.4 0-1.7.6-1.8.6-3.5 1.3-5 2h-.2c-.2 0-.4.2-.5.4-2.4 1-4.6 2.2-7 3.5-2 1-4.2 2.2-6.5 3.2-4.5 2.2-9 4.2-13.8 5.8-2.8 1-5.6 1.7-8.5 2.3L439 64c-3.5.8-7 2-10.4 3.5l-3 1.2c-.3 0-1-.4-1.3.2v.3c-4 1.6-8 3-12 4.2-4.4 1.5-9 2.2-13.4 3-2.3.8-4.8 1-6.4 2.6-1 1.2-.7 3 .6 3.6 1.5.6 3.2.5 4.8.6 3.8-.3 7.7-.7 11.6-.5 7 0 14 .7 21.2 1 9 0 17.7-1 26.5-1.7 7.6-.8 14.7-3.6 22-5.2 3-.7 6-1.5 9-2-4 1.8-7.4 4.6-10.7 7.4-4 3.2-8.2 6.2-13 8.2-6.4 3-13.2 5-19.6 8.2-7.8 3.7-15.6 7.5-23.8 10.5-8.2 3-17 4.2-25.4 6.4-6 1.5-12 2.5-17.8 4.4-5 1.2-10 1-15 1.8-8.6.8-17 2.8-25.5 5-5 1.4-10.2 3-15.3 4.2-6 1-11.8 1.8-17.7 2.3-4.7.6-9.4.2-14 .3-1.2.2-2.2 1-2.2 2.3-.7 2-1.2 4-1.4 6-.5 3.6-1 7.2-2.2 10.6-1 2.8-1.5 5.7-3 8.2-3 4.4-8 6.7-11 11.2 0-4.8 0-9.5-.7-14.2-.5-6-3-11.7-5-17.3-.6-1.3-1-3-2-4-1-.2-1.8 0-2.7.2-1 .6-.6 2-.7 3-.2 2.3-1 4.6-1.5 7-1.2 4.3-1.4 9-3.5 13.2-1.6 4.7-3.4 9.6-7 13.3-4 4.4-9 7.8-13.5 11.8-1 1-1 .8-.6-.3 1.4-5.7 1.7-11.5 2-17.3.3-7.6.2-15 .3-22.6 0-1.4 0-3.3-1.4-4-1.5-.6-3 .7-4.5.6-4 .6-8.3.7-12.4 1-9.5-.3-19 .4-28.5-1.2-4-.4-7.8 0-11.6 0H176v3.6c3.8-.3 7.4-.4 11-.2 3.7.5 7.3 1 11 1.2 6.8.2 13.6.2 20.5 0 4.2 0 8.4 0 12.5-.8.5 0 1.2-.3 1 .5 0 7.8.2 15.6 0 23.4-.6 6-1 12.2-3 18-.6 1.7-1.2 3.5-2 5-1 1.4-2 3.2-1.2 4.7.7.8 2 .4 2.7.6 1 0 .8-1 1-1.6.4-1 1-2 1.8-3 4.8-5 10.4-9.3 15.7-13.8 3.7-3.2 6.8-7 8.7-11.6 1.2-2.8 2-5.7 3.3-8.5 1.3-3.6 1.6-7.6 3-11.4 0-1 .4-1.8.6-2.7 1.7 4.7 3.6 9.5 4 14.6 1 7 .4 13.8.5 20.6 0 1 1 .5 1.6.7.8 0 1.7.2 2.4-.3l.6-2c1.3-3 3-5.6 5.6-7.7 3.4-3 7.2-5.8 9-10 1.2-3.7 2.4-7.3 3.3-11 .7-3.2 1-6.5 1.5-9.7l.8-2.2c5 0 9.8 0 14.7-.4 5.7-.7 11.5-1.4 17.3-2.4 8-2 15.6-4.7 23.6-6.4 6.7-1.5 13.6-2.6 20.5-3 4.5-.4 9.3-.5 13.6-2.2 6.6-2 13.3-3.3 20-5 8.7-2 17.6-3.3 26-7 8-3.7 16.2-7.7 24.4-11.3 8-3.4 16.8-6 24-11.4 4.5-3.3 8.6-7.5 13.8-10 3.7-2 7.6-3 11.5-4.5 1-.5 1.6-1.7 1-2.7-.3-.5-.7-1-1.2-1.2 0-2.4.4-4.8 0-7-.4-1.6-1.5-2.7-1.8-4-.2-.7-.6-1.2-1.2-1.2-1.2 0-1.3 1.6-1.6 2.5-1 2.3-2.4 4.3-3.2 6.7-.6 1.4-2 2.3-2.4 3.8l-3 .6-3 .7c.5-2.8.8-5.7.4-8.6-.3-.8-.2-2-1.3-2.6h-.5c-1 0-1.4 1.3-1.4 2.2-.3 3 .2 6-1.2 8.7L480 73l-8.2 2v-3.2c0-2.4.4-5-.6-7-.4-1-1-1.7-2-1.6-.8 0-1.4 1-1.2 1.7-.3 2.4 0 5.2-1.5 7.3-1 1.5-2.3 2.5-3.8 3.3-.6.5-1 1.4-1.4 2-1.6.4-3.3.7-5 .8 1-2 1.4-4.3 1.7-6.6 0-1.2.4-3-1-3.6h-.4c-1.3 0-1.4 1.6-1.7 2.5-.8 2.2-2 4.3-3 6.5-.7 1.2-2.2 1.6-3.5 2l-7 .5c0-1.5 0-3 .2-4.5.2-1.2-.4-2.4-1.5-3-.7-.4-.8-1.3-1.3-2-.3 0-.5-.2-.7 0-1.3.4-1.3 2-1.6 3.3-.2 2-.4 4.2-1.8 5.7-.2.4-1 .5-1.2.8-3 0-6 0-9-.3-6.4-.5-12.8-.6-19-.7 5.2-1 10.5-3 15.6-4.8l6-2.4c0 .2.2.3.3.5 1.4 1.6 2 3.7 3 5.5 1 .6 2-.4 2.2-1.3.6-2 .2-4-.5-6 0-.2-.2-.4-.4-.6 2.7-1 5.2-2 8-2.6l1.5 1c1 .6 2.6.8 3.7 1.7 1.2 1.6 1 3.7 1.4 5.4.7.8 2 .7 2.4-.2 1-1.7.6-3.6.4-5.4l-1.4-4.3c2.7-.7 5.4-1.4 8-2.3.6.7.8 1.6 1.5 2.2 1.3 1.4 3 2.7 3.2 4.7.3 1 0 2 1 2.2.6.2 1.8.2 1.7-.8-.2-1.8 0-3.6 0-5.5-.2-1.8-.5-3.6-1-5.3 2.4-1 5-2 7.3-3.3l.5.8c.6 1.7 2 3 3.5 3.8 1.5 1 3 2 3.4 4 .6.5 1.4 0 2 0 .5-.2.6-.8.4-1.3 0-3.4.7-7.2-1.3-10.3 0-.3-.4-.6-.8-.8l4-2.2c.3 0 .5-.2.8-.3.5.8 1.2 1.5 2 2 1.6 1.4 2.2 3.5 2.6 5.5.3 1.3-.3 2.7.4 3.8.5.8 1.6.7 2 0 .8-1.5.8-3 1-4.6.2-3.3.2-6.5 0-9.7 1.8-.5 3.6-1 5.4-1.2 2-.6 4-.6 6-1.3.7-.4 1.7-1 1.4-1.8 0-.4-.5-.4-.7-1.3 0-.6-.8-1.5-1.5-1-.3.2-.5.4-.8 0-.5-.3-.8.5-.5.7-6.7-.6-13.3-2-20-3-13.4-2-27-2-40.7-2-5.2 0-10.5.2-15.7.4H411c-2 0-4.2 0-6.3.5-1 0-2.3.3-3.5.5H400c-8.5.6-17 1-25.4 1-6.6 0-13.2 0-19.8.3-8 .3-16 .2-24 1-3.4.2-6.8 1-10.2 1-9.4 0-18.7-.2-28 0-2.6 0-5 .3-7.6.4 0-.6-.3-1.2-.6-1.7-1.4-2.7-4-4.7-5.5-7.3-3.5-5-8.4-9-11.2-14.3-1.5-3-3.5-5.5-6.3-7-2.7-2-5.8-3.3-9-3.6-2.5-.3-5-.6-7.3-.7-.5-1-1.3-1.8-2.3-2-.7-.3-1.3-.3-2-.3h-.3zm.6 1.7c.6 0 1.2.2 1.7.6-.5 0-1 0-1.5-.4zM249 12c1.5 0 2.8.2 4.2.4 3 .6 6 2.2 8.4 4.3 2.5 2.6 3.7 6 6 8.8l2 2.5-2-2.3c-2-2.4-3.4-5.3-6-7l-5.8-2.6c-2-.8-4.3-1.5-5.8-3.2l-1-1zm-1 12c1 1.7 2.3 3.3 3.2 5 .8 2 2 3.7 2.8 5.7.5 2 .7 3.7.8 5.6l-.5-1.2c-1-2.6-2.6-5-4-7.3-1.3-2.3-1.5-5-2.3-7.6zm253 18c-.5.3-.3 0 0 0zm-158.5 0h.2c-4.3.5-8.6 1.2-13 1.4-10.2.3-20.3 0-30.5.4-4.6.3-9.3 0-14 .6V44c.5-.2 1-.2 1.4-.2 3.7-.2 7.3-.6 11-.5H324c2.8-.4 5.8-.8 8.8-1 3.2-.3 6.5-.5 9.7-.6zm156.5 1c.7.5-.8 0 0 0zm-11.2 6V54c-.8-1.7-2-3-3.5-4 1-.6 2.3-1 3.5-1.5zm-13 6c.6.2 1 .5 1.4 1 1 1.3 1 3.3 1 5-.4.6-1 0-1.4-.2-1.5-.8-3.2-1.8-3.6-3.6 0-.3-.2-.5-.3-.7l3-1.6zm-14.6 6.8c.2.4.3.8.3 1.3l.5 2.6c-1-1-2-2-2.7-3.2l1.4-.5.5-.4zm38 .8c.2 0 .5.3.4.6.4 2 0 4.2.2 6.3v.3l-5 .5.8-1c1.2-2 1.8-4.4 3.2-6.3 0-.2.2-.3.3-.3zM445.6 66l.4 1.3c.5 1-1-.2-1.5-.2-.4 0-.8-.2-1.2-.4l2.4-.6zm-112.4 0v19.4l1 4.3 1.3 5.3c.4 1.2 1 2.3 1.8 3.3l1.6 2.2 2.2 2.2 1.7 1.8c.5.8 1.2 1.4 2 2l.2.3 1-1v-.4c-.8-.6-1.5-1.2-2-2-.6-.6-1.2-1.4-2-2l-2-2-1.5-2c-.6-1-1.2-2-1.6-3l-1-5-1-4.2v-9.8V71v-5h-1.7zm-21.4.5c-.4 1.8-.5 3.6-.5 5.4 0 1.7 0 3.6-.2 5.4l-.4 7.3c0 1.7-.3 3.4 0 5 0 1.3.6 2.3 1 3.4l1 2.2c.6 1.8 1.3 3.7 2.3 5.5.6 1.2 1.4 2.3 2 3.6.4 1 1 2 1.2 3 .4 1 .7 2.3 1.2 3.4.2.7.6 1.4 1 2 0 .4 0 .2.3.6l1-1.2-.8-1.8c-.4-1.2-.8-2.3-1-3.5l-1.5-3.2-2-3.6c-1-1.8-1.6-3.7-2.3-5.5l-.8-2c-.3-.6-.6-1-.8-1.7l-.3-1.2c-.2-1.6 0-3.2 0-4.8 0-2.5.2-5 .4-7.3V72c0-1.8.2-3.6.5-5.3l-1.6-.2zm9.3.7v18.6l1.4 3.3 1.4 5 1.4 4c.3 1 .8 1.7 1 2.6.4.6 1 1 1.2 1.8l1 2.5 1.4 2.6 1.2 1.6c.3.4.8.7 1.2 1l.8-1.5c-.2 0-.4-.3-.6-.4l-1.2-1.5c-.5-.8-1-1.7-1.3-2.6l-1-2.4c-.2-.6-.6-1.2-1-1.8-.3-.8-.8-1.6-1-2.5-.6-1.3-1-2.6-1.4-4-.4-1.6-.8-3.3-1.4-5l-1.2-3c-.2-1 0-2.2 0-3.3v-10-5h-1.7zm108.5 3.6zm39.7 1v4l-4.4 1c.3 0 .6-.2 1-.4 1.5-1 2.6-3 3.5-4.6zm-30.7 5c.3.2.4 1 .3 1.3V80h-1.7c.5-.7 1-1.7 1.2-2.7h.2z" stroke-width="0"/><g id="g4977" class="tail" stroke-width="0"><path id="path4979" d="M177.8 73.2c-3 .4-6 .8-9 1.4-3.2.4-6.2 1-9.2 1.6l-6.3 1.5c-3 1-6 1.6-9 2.6-3.2 1-5.8 3-8.7 4.5-2 1.2-4 2.2-6.2 3-3.5 1-7 1.5-10.7 2.2-2.8.6-5.5 1.5-8.2 2.5-2.2.8-4.4 2-6.5 3.2L99 99c-1.2.4-2.2 1-3.3 1.4-1.6.8-3 2-4.3 3.2l-.4.5-2 1.6c-2 1.5-4 3.2-5.5 5-1.8 2.4-3.4 4.8-5.5 7-1.5 1.6-3.5 2.6-5.5 3.5-2 1-3.7 2.4-5.2 4-1.4 1.3-2.5 3-3.3 4.6-.6 1.5-1 3-1.8 4.2-.6 1-.8 2-1.4 3l-.8 1H46.5c-2.2.2-4.4 0-6.6-.2l-9-.3h-8c-1.8.3-3.5.7-5 1.4-1 .2-2 .6-2.8 1h-.6c-.4 1.2-1 2.2-1.2 3.4 0 .3.4.5.6.6 1.2 1 2.8 1.6 4.3 2.2 4 1.4 8.2 2.3 12.2 3.7 4 1.2 7 3.5 10 6l1.2 1.2 2 2.2 3.2 3 1.7 1.3.8 1.2 2 2.3 3 3.5c1 1.4 2 2.8 3.6 4 .4.2.6.6 1 1 1 1.6 2.3 3.2 3.3 5 1 2 1.6 4.2 2.3 6.5l1.2 5 .7 3 .4 3.5c0 1.4.3 3 .4 4.3v1h.5c2.6 1 3.4 1.6 3.4.2v-.3-.8c.4-1.7.5-3.5.5-5.2 0-1.3.7-2.5 1.2-3.6.3-.8.6-1.6.7-2.3.3-2 .8-3.8 1.2-5.7.5-2 .7-4 1-6l.4-3.6V173v-4.7-4.3c-.4-1-.5-2-.8-3-.3-.7-.4-1.5-.5-2.3v-3.4-1.3l3.2-2.8c1-1.3 2.4-2.4 3.7-3.4h.6l5.4-1 3.3-.7 3.4-.8c1.5-.5 3.2-1 5-1l7.3-1 5.4-.4h8c1.7 0 3.5-.3 5.2-.5 2.2 0 4.5-.4 6.8-.6 1.8-.2 3.7-.2 5.5-.3 1 0 2.3.2 3.3.5l4.8.6h.8l3.3.6c1.7.3 3.4.3 5 .5 2 .3 4 .4 6 .5l4.6.5 3.3.2h2.2c1 0 1.8-.2 2.7-.6.6-.2 0 0 1 0 .5-.2 1 0 1.6 0h3v-4h-5.1c-.8 0-1.5 0-2.3.5h-.2c-.4 0-1 .2-.8 0h-4.3c-1-.2-1.6-.2-2.3-.2h-.2c-1 0-2-.3-3-.4-2 0-3.8 0-5.7-.4l-4.8-.5-3.5-.6c-1.6-.5-3-1-4.6-1-2-.3-3.8-.3-5.7-.5-2.4-.2-4.8-.3-7-.2h-9c-2 0-3.7.3-5.5.5-2.4.2-4.8 0-7.2.2-2 0-4.2.2-6.3.5-1.7.2-3.4.2-5 .6l-6.7 1.5c-3 .7-6.2 1.6-9 3.2-1.8 1.2-3.4 2.4-5 4-.7.2-1.4.6-2.2 1l-1 .6c-.3.2-.5.5-1 .6 0 0-.3-.2-.5 0-.5.3-.7.7-1 1V179c-.3 1.7-1 3.2-1 4.8l-.7 3c0-.5-.2-1-.4-1.6-.4-1-.8-2-1-3 0-1-.4-1.7-.7-2.5-.4-.7-.7-1.4-1.3-1.8l-1.4-1.3L62 173c-2-2.5-3.8-5.2-5.8-7.8l-2.3-2.6c-1.5-1.3-3.2-2.3-4.6-3.6l-2.2-2-.7-1.6c-.5-1.5-.8-3-1.6-4.6-.7-1-1.3-2-2-2.8-.6-.8-1.3-1.6-2.3-2-1-.7-2-1-3-1.4H37l2-.6h6.8l4.8-.6H62c.6-.2 1.2-.5 1.7-1l1-1c.6-1 1-1.8 1.3-2.7 0-1 1-2 1-3l1.2-4.2c0-.3.3-.6.3-1v-.2l.3-.3c.7-.5 1.4-1 1.8-1.8.5-.4.7-.6 1.3-.8L74 126c1-1 2-1.6 3-2.4l2-2 1.6-1.6c1-1 2.2-2.3 3-3.5l1-1.2s0-.3.7-1c.3-.5.6-1 1-1.2l.6-.7c.2 0 .3 0 .3-.2h.2l1-1 2.8-2.5 7-5c2.6-1.5 5.3-3 7.7-4.6 1.6-1 3.2-2 5-2.6h.4c2-.5 4-.6 6-1 1.5-.2 3-.6 4.5-1.2l2.6-1c1-.2 2-.6 3-1.2l3-.7c2.5-.8 4.8-2 7-3.3 1.5-1 3-2 4.6-2.7l2.6-1.2 1-.3 1.8-.6c.6 0 1.2-.2 1.7-.3l3.7-.8c2.2-.6 4.5-1 6.7-1.2 2.7-.3 5.4-1 8-1.6 2-.5 4.2-1 6.2-1.7l4.4-.5-.6-3.8zM63.6 139.5c0 .2-.2.4-.4.6l-.8 1c-.2.2-.6.4-1 .4H61h.4l1.3-1 1-1zM25.2 141H31c2.8 0 5.7 0 8.5.4 2.3.2 4.6.3 7 .3h2.2l-3 .3H39c-.8 0-1.6.5-2.4.6H35c-.5 0-1 .4-1.7.6-.6.2-1.3.2-2 .2h-1c-1.2-.2-2.3-.4-3.3-.8-1-.5-2-1-2.8-1.6h1zm-4.2.6l1.8.8 1.6 1c-.6 0-1.2 0-1.8-.3-.4 0-1 0-1.3-.3 0 0-.3 0-.6-.3 0-.3 0-.5-.2-.6.2 0 .3 0 .5-.2zm9.3 3.8l1.5.3c1.8 0 3.6.2 5.4.7.8.3 1.7.7 2.5 1.2.7.3 1.3 1 1.8 1.6l1.7 2.6c.4.7.6 1.3.8 2l-1-1c-3.3-3-7-5.4-11.3-6.8l-1.6-.5h.3z"/><path id="path4981" d="M18.5 60v.2H18c0 3-.7 3.5-.5 3.7h.5l.7.3c.6.2 1 .8 1.6 1 2 2.2 2.8 5 3.8 7.5 1.2 3 2.3 5.7 3 8.6L28.5 92c.5 3 1.6 5.7 2.5 8.6 1 2.8 1.8 5.6 3 8.3.5 1 1 2 1.2 3v2.3c0 1.8.7 3.5 1.3 5.2.6 1.6 1 3 1.4 4.7 0 1.8.4 3.5.7 5.3v22c0 2.2-.3 4.5-.7 6.7l-.8 5.4-1 5.2c0 2-.2 4-.5 6 0 .8-.4 1.5-1 2.3l-.6 2c0 1.2.8 2.6 2 2.8h1.2c1.6-.2 3-1 4.4-1.8 1.8-1.3 3-3 4.2-4.8 1.3-1.8 2-4 3-5.8 0-.3.3-.6.5-1 2-1.5 3.8-3.2 5.3-5l2-3.8c.8-1.2 1.7-2.5 2.7-3.6 1-1.4 2.3-2.7 3.5-4 1-1.2 1.6-2.3 2.2-3.5.7-1.5 1-3.2 1-5 .3-1 .5-2.4.6-3.7l.2-3.3c0-.6-.2-1.4 0-2l.2-.4 6.6.2h7.6c.4 0 .8 0 1.2.2 2.7.2 5.3.5 8 .6l9.8.4c2.5.2 5 .4 7.5.4l9 .3 9.8.5h14.8c.8 0 1.6.3 2.4.4 1.2.3 2.5.3 3.6.8l3 1.4c1.2.3 2.4.3 3.5.7 1 .6 2.5.8 4 1 1.7 0 3.5 0 5.3.3l1 .2.7.3 5.5 2 3.3 1c.7.4 1.4.5 2.2.5 1 0 2-.3 2.7-1h2.4c-1.4 0 1.7.6 1.7.6h.8l.2-4h-.6-.3c-.6 0-1-.7-1.8-.5h-3c-.3 0-.5 0-.7-.3l-1.3-.7c-.7-.3-1.4-.4-2.2-.5-1-.2-1.7-.5-2.6-.5-1 0-2-.3-3-.6-1.5-.3-3-.2-4.5-.5-1.5 0-3-.3-4.6-.3-1.2-.7-2.6-1.2-4-1.5-1.5-.3-3-.4-4.5-.5l-1.6-.8c-1.5-.5-3-.8-4.5-1-2.4-.4-4.8-.6-7.3-.8-2.3 0-4.5-.2-6.8-.5h-21.1c-2.2 0-4.3 0-6.4-.4-2-.3-4-.6-6-.7-3-.3-6.2-.3-9.2-.3H73.6c-2.3 0-4.8 0-7-.3-.5 1.3-3.3.6-3 2 0 .5-.3.8-.4 1v.4c-.2 0-.2.2-.3.3l-1 2c0 .7 0 1.5-.2 2.3-.2 1.3-.7 2.6-1 4-.4 1.5-.5 3.2-1.2 4.6l-1.8 4-.5 1.6-1 1-4.5 6c-1.3 1.2-2.6 2.5-3.7 4l-2.7 4.2c-.4.8-.8 1.6-1 2.4-1 .7-2 1.5-2.7 2.3v-.5-4-3.4-4.2l.2-1.5c.4-2.5.6-5 .8-7.5v-5-6.6-6.2-4.3c0-1.7 0-3.4-.5-5l-2-9c-.5-2.5-1-5-2-7.3.3-.8.5-1.6 0-2.4-.8-1.3-1-3-1.5-4.4-.4-1.8-1-3.6-1.2-5.3-.4-1.2-.8-2.4-1.4-3.5-.7-1.3-1.2-2.6-1.5-4-.5-2-.8-4.3-1.5-6.4l-.4-1.2c-.7-3.3-1.8-6.3-3-9.3L26.3 68l1 1c1.3 1.4 2.7 3 4.6 3.7 2.3 1 4.6 2 7 2.6h.5c1 2 1.8 3.7 3 5.2 1.5 2 3 3.5 4.5 5.3l1.6 2 .6 1 1 2c.7 1.8 1.7 3.4 2.5 5.2 1 2 1.6 4 2.6 5.8.4.7.8 1 1.3 1.4l.2.2c1 1.2 2 1 3.5.8l5-.8c2.6-.4 5.3-1 8-1.6l5.5-2c1.4-.7 2.7-1.3 4-1.7h1.2c2.5-.2 5-.5 7.5-1.3h.3c2.7-.4 5.3-1 8-1.2 2.8-.4 5.6-.7 8.3-1.3l5-1.3c2-.6 3.8-1.5 5.7-2.2 3.2-1.2 6.5-2 9.7-3 2.4-.7 4.8-1.4 7-2.3 2-.7 4.2-1 6.3-1.4 2.6-.2 5.2-.6 7.8-.7l5.3-.7 3-.7c1-.3 1.8-.6 2.6-.6l2.2-.7h.4l7.2-1c2-.4 4-1 5.8-1.6V78s.2 0 .3-.2c1.8-.5 3.4-1 5-2l-1.8-3.3c-1.3.7-2.8 1.2-4.2 1.7l-4 1c-1 0-2.4.4-3.6.6-1 0-2 .4-3 .6-1 0-2 .5-3 .7-.6 0-1.2.4-2 .6-1 0-1.7.4-2.5.6-1 0-2 .4-3 .6l-5 .6c-2.7.2-5.4.6-8 1-2.3.3-4.6.7-6.8 1.4-.4 0-1 .3-1.3.5-.6 0-1.2.2-1.7.3-1.8.5-3.6 1.2-5.3 2-3 .7-6 1.6-8.8 2.7l-3.2 1c-2.8.6-5.6 1-8.4 2l-4 1-2.5.4c-2.7.2-5.4.8-8 1.2-2.8.2-5.4.5-8 1-2 .5-4 1.4-6 2.2-1 .5-2.2 1-3.3 1.3-1 .3-2.2.5-3.2 1-1 .2-2.2.3-3.3.7h-.5l-2.3.4-5 .8c-.2-1.3-.6-2.5-1-3.7-1-2-2.2-4-3.5-5.8-1.4-1.5-2.2-3.3-3.3-5L50 83.6c-.2 0-.3-.2-.4-.3l-.7-3.8-1.5-2.8-1-.8-1-1.5c-.7-.5-1.5-.8-2-1.3l-1.6-1-3-4.7c-1-1.6-2.5-2.6-4-3.5-1.7-1-3.7-1.4-5.6-1.8-2-.2-4-.6-6-1-1-.3-2.4 0-3.5-.4-.4 0-.7-.2-1-.3-.2 0-.4-.3-.5-.2zM30 66c1 .3 2 .6 3 1.2 1 .5 2 1 2.5 2-1-.6-2-1-2.8-1.7L30 66zM28 67.3l3.7 2 5.7 3c0 .3.3.5.4.8-1.8-.5-3.6-1.3-5.5-2-1.6-.8-2.8-2-4-3.4l-.3-.3zM174 143h.4-.4z"/><path id="path4983" d="M61.6 30.4c-1.3 0-2.8 1-2.6 2.3v4c0 .5 0 1-.2 1.5-.3 1-.6 2-.5 3v4c-.3 1.5-.6 3-.6 4.5V56c-.3 1.6-.6 3.3-.7 5 0 2 0 3.8-.7 5.6l-2 6.8c-1 2.8-1.7 5.6-3.2 8-.5 1-1 1.5-1.6 2.3-1.2 1.4-2.7 2.6-4 4-.8 1.5-1.4 3-2 4.4-.8 1.5-1.2 3-2 4.2-1.4 2.7-2.8 5.6-3.8 8.6-.8 2.5-1.8 4.8-3 7-1.4 2.3-2.8 4.5-4.4 6.6-1.7 2.4-3.7 4.7-6 6.4-2.4 1.7-4.7 3.4-6.2 5.8-1.3 2.2-2.4 4.6-2.8 7l-.7.7c0 1.8 0 1.8.7 1.8.2 1 1 1.8 2.5 1.7 1 0 1.7 0 2.5-.4 1-.4 2-1 3-1 1.8-.5 3.7-1 5.6-1.3 2.2-.5 4.3-1 6.4-2 1.5-.5 3-1.3 4.3-2.3.6-.5 1-1 1.8-1.2 1-.4 2-1 2.8-1.6.8-.3 1.3-.6 1.7-1 .8-.5 1.7-1 2.5-1.2 2.4-.8 4.6-2 7-2.8 2.3-1.3 4.8-2.5 6.6-4.6 0 0 .7-.8 1-1.5h.3c1.8.2 3.5.6 5 1 2.2.3 4.3.8 6.3 1.2.7 1 1.2 1.7 2.2 2.2 1.2.6 2.5 1.3 4 1.6 1 1 2 2.2 3.5 3 2.4 1.7 5 3 8 3.7 2.8.6 5.8 1 8.7 1.7 1.5.5 3 1 4.7 1.3 1.7.3 3.4 1 5 1.2l7 1.2c2 .3 3.8.6 5.5 1.3 1 .4 2.4.7 3.7.7l8.4.8 10.5.7c2.4.3 4.7 1 7.2 1.2 3.4 0 7 .4 10.4.7 2 0 4 .4 5.8.3h4l5-.6-.6-3.8-4.6.5h-3.8c-1.8.2-3.6 0-5.5 0l-10.4-1c-2.4-.2-4.7-.7-7-1l-10.6-.7c-2.8-.2-5.5-.6-8.3-1-1 0-2 0-3-.5-1.3-.5-2.7-.8-4.2-1l-2.6-1c-3-1.2-6.3-2-9.5-2.7-2.5-.4-5-.8-7.5-1.5-1.4-.5-2.7-1.3-4-1.7-1-.4-2-1-3.2-1.2-1.8-.5-3.7-1-5.5-1.3-1 0-1.8-.3-2.7-.4l-2.6-2.6c-1.6-1.6-3.7-2.7-5.8-3.6l-2.2-.5c-.5-.7-1-1.4-1.7-2-.8-.5-1.7-.8-2.6-1-1.8-.3-3.5-.3-5.2-.3-2-.2-3.8 0-5.8.5-1.6.6-3 1.4-4.4 2.6-.7 1-1.4 1.8-2.3 2.6-.8.7-1.6 1.3-2.3 2.2l-1 1.7-2 .7c-1.6.5-3 1.3-4.5 2.2-.8.5-1.6 1.2-2.5 1.5-1 .3-2 1-3 1.6v.2c-.3 0-.5 0-.8.2-1 .5-2 1-2.8 1.7-1.7.7-3.6 1.2-5.4 1.6l-5.7 1.2c-1 0-2 .6-3 1v-.3c1.2-1.2 2-2.7 3-4l2-4c.8-.4 1.4-1 2-1.4 2.8-2 5-4.5 7-7l2.7-4 .8-1c1.6-1.5 3-3.2 4.4-5 1-1.3 2-2.5 2.5-4 .5-.8.5-2 .6-3l.5-3.5 1.2-4.5.5-1.5.2-.4c.7-1.3 1-2.8 2-4 2-2 3.8-4 5.5-6.4.5-.7 1-1.5 1.2-2.3 1-2.3 1.8-4.5 2.5-6.8.5-2.3 1.2-4.5 2-6.7.7-2 .7-4.4.8-6.6.2-1.7.5-3.3.6-5v-3.5-3l.6-4.2.2-4c0-1 0-1.6.3-2.3.2-.8.3-1.5.3-2.3v-1l1 1c.6.7 1 1.5 1 2.3.6 1.8.7 3.5 1 5.3l2 5.4c.6 1.2 1.5 2.3 2.2 3.4.7.8 1 1.8 1.4 2.8l1 4c.2 1 .2 2 .3 3.2 0 1 .3 2 .5 3 0 1 0 1.8.3 2.7.3 1.3.3 2.5.6 3.7l.6 3.5v1.2h-1v5.1c0 1.3.3 2.6 1 3.7l1 1.3c0 2 1.5 3 3 4 1.3.6 2.4 1.3 3.6 2.2 1 .8 2 1.4 3 2 1.3.8 2.7 1.2 4.2 1.4 1.6.6 3.4.7 5 .7 2.3 0 4.4-.2 6.5-.5 1.5 0 3-.7 4.8-1l3-1c1-.2 2-.6 2.8-1l2.7-1.2c1.2-.3 2.4-1 3.8-1.2l5-1c1.3 0 2.5-.4 3.8-.6 1.2 0 2.3-.2 3.4-.5 1 0 2-.5 3-.8l2.5-.5c1-.2 1.8-.3 2.6-.6 1.5-.4 3-.5 4.6-.7l6-.7c1.5 0 3.2-.5 4.8-.8 1 0 1.8-.4 2.7-.7.7 0 1.5-.4 2.3-.6l3.6-1.5 3.4-2c0-.2.3-.2.4-.3l1.5-.8c1.2-.2 2.3-.6 3.5-1l3.3-1.2c.8-.2 1.6-.7 2.4-1 .2-.3.6-.4 1-.4l-.6-4c-.7.2-1.5.4-2.2.8-.6.3-1.3.8-2 1l-2.4 1v-.4c-3 .2-6 .5-8.8 1-4 .7-8 1.7-11.8 3-3.4 1.2-6.8 2.6-10 4.2l-2 1c-.3 0-.6 0-1 .2l-2.4.6-2.4.3c-1 .4-2 .8-3 1-1 .2-2 .4-3 .4-1.3.2-2.6.6-3.8.7l-5.5 1-2.7 1h-.4c-1.2.3-2.3.6-3.5.7-1.4 0-2.8.4-4.2.6-2 0-4.2.3-6.4.5-2.2 0-4.2.4-6.3.7l-2.4.3c-.7 0-1.4.2-2-.2-.7-.5-1.6-1-2.4-1.2-1.2-.6-2.4-1-3.6-1.2l-3.8-1.7c0-1.3.2-2.4.3-3.7-.2-.7-.2-1.5-.5-2.2-.3-.8-.3-.3-.3-1 0-.8 0-1.5-.3-2.2-.3-.8-.5-1.6-.5-2.5 0-1.4-.3-2.7-.6-4-.4-1.2-.4-2.4-.7-3.6-.2-1 0-1.8-.2-2.7 0-.8-.4-1.6-.4-2.4 0-1.3-.2-2.6-.4-3.8l-1-4.5c-.6-1.4-1-2.7-2-4-.6-.7-1.3-1.6-1.7-2.6-.7-1.4-1.3-3-1.8-4.6-.4-2-.5-4-1-5.7-.5-1-1-2.3-1.7-3.2-.7-1-1.4-1.7-2.2-2.5-.8-.7-1.7-1.3-2.7-1.8h-.4zm102.8 47l-.7.2c-1 .7-2 1.4-3 1.8-1 .5-2 1-3 1.2l-2.5.8c-.7.3-1.4.5-2.2.6-1.6.3-3 .7-4.7.8l-4.3.5c2.2-1 4.4-2 6.7-2.7 3.8-1.3 7.6-2.3 11.5-3l2.2-.3zM75.6 82c0 .3 0 .5.2.8v1.5l-.2-2V82zm29.6 10l-.3.2c-1.6.4-3 1-4.6 1-2 .3-4 .3-6 .5-1 0-1.8-.2-2.7-.3.8 0 1.5-.2 2.3-.3 2-.3 4-.7 6-.7l5.2-.4zm-62.6 10.3c0 .4 0 .8-.2 1 0 1 0 1.8-.5 2.6-.5 1-1.2 2-2 3l1.2-3 1.4-3.5zM68 118c.6 0 1 0 1.5.2l1 .3c-.6 0-1.2-.2-1.7-.3-.2 0-.5 0-.7-.2zm-8.2.4c-.3.6-.5 1-1 1.6-1.5 1.6-3.5 2.6-5.4 3.6-.3 0-.6.2-.8.3l1-1c.8-.7 1.6-1.5 2.2-2.4 1-1 2.3-1.7 3.7-2.2h.3zM89 128.6l3.5.8 2.6 1c-.7 0-1.5-.3-2.3-.4-1.3-.3-2.5-.8-3.7-1.4z"/></g><g id="g4933" class="eyes" stroke-width="0"><path id="path4925" d="M417.3 47.5h-1c-.3.2-.6.2-1 .2-.5 0-.8.2-1 .6-.5 0-1 .2-1.3.3h-.2c-.4 0-.7.3-1 .4h-.3c-.5.2-.8.5-1 1-1 .7-1.3 1.6-1.6 2.6-.3.7-.4 1.5-.6 2.2-.2.6-.2 1-.2 1.7v2c0 .8.3 1.6.6 2.4.4.7 1 1 1.7 1.5.6.3 1.4.2 2 .2h3.2c.8 0 1.6 0 2.4-.2.7-.2 1.2-.6 1.6-1 .6-.4 1-1 1.3-1.7.2-.5.6-1 1-1.4l.6-.8c.3-.3.3-.7.4-1v-1.3c.2-.6 0-1.2 0-1.8l-.6-1.6-.5-1-.5-1c0-.2-.3-.5-.5-.8l-.8-1-.7-.3c-.3-.3-.7-.4-1-.4h-1.2zm-1 3.4h2.6v.2l.4.8v.3l.5.8.2 1.2.2 1v1h-.2c0 .2-.2.3-.3.5-.6.5-1 1-1.4 1.7l-.6 1c-.2 0-.3.3-.5.3h-.2c-.5.3-1 .3-1.6.3h-4.2l-.2-.3c-.3-.4-.4-1-.4-1.5-.2-.5 0-1 0-1.6v-1l.5-2.2.7-.8.5-1c.4 0 .6-.2 1-.3l2.7-.4zm-21.2.3c-.7 0-1.4.3-2 .8l-1.6 1c-.4.4-.8.7-1 1.2l-.2.4-.3 2c-.2.5-.3 1-.3 1.6v2.2c0 .7.4 1.4 1 2 .5.7 1.3 1 2 1.4l2.6.3c.7.2 1.4 0 2 0 .8-.3 1.3-.7 1.7-1.4l.4-.3c.2 0 .3-.3.5-.5v-.2c.3-.3.5-.6.6-1V60v-.3h.2v-1l.2-.4V57v-1.2-.6-.4c0-.5-.2-.8-.4-1l-.4-.6-.3-.4s-.2 0-.2-.2l-.3-.4c-.2 0 0 0-.2-.2l-.4-.2c-.2 0-.3 0-.5-.2h-.4l-3-.3zm0 2.8v.4h1.4l.5.2.3.2h-.2.4c0 .2.2.2.3.2l.2.3c-.6-.2-.3 0 0 0h.2V59c-.2.2-.2.5-.2.8l-.4.4h.2s-.2 0 0 0h-.2l-1 1c-.3.2-.8.2-1.2.2-.5 0-1 0-1.6-.2-.4 0-1-.3-1.2-.6l-.2-.4v-.8-1l.3-1.6c0-.4 0-1 .2-1.4v-.2l1.4-.8c.2-.2.4-.3.7-.3zm3.3 1.4l.3.2h-.3v-.2z"/><path id="path4927" d="M418.7 51c-.3 0-.7 0-1 .2h-.6c-.2 0-.5 0-.7.2-.2.2-.7 0-1 .2l-.4.2h-.7l-1 .4c-.4.2-.8.5-1 1-.2 0-.4 0-.5.2l-1 .7c-.5.3-1 .5-1.2.8l-.7.4-.7.7c-.2 0-.3.4-.3.7 0 .2 0 .5.3.8.5.4 1 .5 1.4.6l2.2.5h3c1 0 1.7-.2 2.5-.4.6 0 1.3 0 2-.3.3 0 .6-.2 1-.4l1-.8V56c.3-.2.5-.5.5-1v-.5-1.2c0-.4-.3-.8-.5-1.2-.3-.3-.7-.5-1.2-.7-.5-.2-1-.2-1.6-.2zm-22.2 2.7h-1.3l-1.5.3c-.3 0-.7 0-1 .2h-.6v.2h-.6v.3s-.3 0-.5.2c-.3 0-.5.2-.7.6-.3.4-.6.8-.7 1.3v2.2l1 1h.4c.8.5 1.6.6 2.5.5h2c.2 0 .4 0 .6-.2.7 0 1.2 0 1.7-.2.3 0 .5 0 .7-.2h.6l.7-.7V59h0c.3 0 .3 0 .4-.2h.2c0-.2.2-.2.3-.3.3-.2.4-.5.5-.7v-.3-.8l-.5-.4V56l-.2-.4c0-.2 0-.3-.2-.5l-.5-.3c-.2 0-.3-.2-.3-.2v-.2h-.2-.4l-.4-.3-1-.2c-.3 0-.7-.2-1 0zm19.3 0h2.2c0 .3.2.5.5.6l.2-.5h1v1.4l-.7.4h-.5c-.3.2-.7.2-1 .2h-1.7c-.4.2-.8.2-1.2.2h-.8l-1-.2h-.6l.2-.2.5-.3.6-.7.2-.3c.2 0 .3 0 .4-.2h1c.2-.2.4-.2.6-.2zm-19 2.7l1.2.7c.2 0 .3.2.5.3l-1 .6h-.5-.4l-1 .4h-.4c-.2.2-.5.2-.8.2h-2-.3v-.2h-.2V58v-.4s-.2 0 0 0v-.2c.4 0 .7 0 1-.2.4 0 1-.2 1.4-.4.4 0 .8 0 1.2-.2h.8c.2 0 .5 0 .7-.2z"/><path id="path4929" d="M422.2 49.7c-.2 0-.4.2-.6.4l-.2.3-.2.2-.4.4-.4.3-1.5.6c-.7 0-1.3 0-2 .3-.4 0-.8.3-1.3.4-.6.2-1 .5-1.7.6l-3 1.2-1 .5h-.2c-.4 0-.7 0-1 .2-.3 0-.8.3-.8.7V57c.3.5.5.8 1 .8h.5l1-.5.7-.3 1.6-.4 2.4-.7c.7-.3 1.4-.3 2-.3.8 0 1.6 0 2.3-.2h2.2c.4 0 .7 0 1-.2h3v-2h-4c-.4 0-.8 0-1.3.2h-.4c.4 0 .8-.2 1.2-.4.5-.2.8-.5 1-1h.3l.3-.4-.6-2zm-39.5 3.8l-.5 2h2l1 .2c.3 0 .7 0 1 .2.5 0 .8.3 1.2.4l2.3.6 1.3.3h-1.6c-.6 0-1 0-1.6.3h-1l-1.3.2-1.5.3c-.3 0-.5 0-.7.2h-.2v2h.5l.8-.2 1.5-.3h1.2l1.2-.3h1.2c.8-.2 1.7-.2 2.5-.3h4l2.4-.2v-.4h.2c.4 0 .7-.4.7-.8v-.2-.3c0-.2-.4-.5-.8-.5h-1V56h-2.2-.2c-.3 0-.6-.3-1-.3-.4-.3-1-.4-1.6-.5-.5 0-1-.2-1.5-.4v.3c-.3 0-.6 0-1-.2-.6 0-1.3-.2-2-.4l-1-.5c-.6 0-1 0-1.7-.2-.3 0-.6 0-1-.2h-1.6z"/><path id="path4931" d="M422.2 53l-.4.2-.4.3h-1.6l-.3.3h-.8l-.4.3h-.8l-.8.5s-.5.3-.3.3c-.4 0-.7 0-1 .2l-1.4.4c-.8 0-1.6.2-2.3.3l.2 1.2 2-.4c.6 0 1.2-.2 1.7-.4.2 0 .5 0 .8-.2.3 0 .6-.2.8-.4l.4-.2h.9c-.2.2.8-.4.7-.3h.3c.3 0 .6 0 .8-.2h1c.3 0 .5 0 .7-.2 0 0 .2 0 .3-.2h.4V53h-.5zm-30 3.4H390c-.8 0-1.7 0-2.5.2l.3 1.3c.7-.2 1.5-.3 2.2-.3h3.6l1.2.3h5l.7.3.2-1.3c-.3-.2-.6-.4-1-.3h-.5-3-2.2c-.6-.2-1-.4-1.6-.3z"/></g></svg>